<svg id="visual" viewBox="0 0 2000 1000" width="2000" height="1000" xmlns="http://www.w3.org/2000/svg" xmlns:xlink="http://www.w3.org/1999/xlink" version="1.1"><rect x="0" y="0" width="2000" height="1000" fill="#FCF7FF"></rect><path d="M0 654L47.7 655.3C95.3 656.7 190.7 659.3 285.8 661C381 662.7 476 663.3 571.2 656.8C666.3 650.3 761.7 636.7 857 625.5C952.3 614.3 1047.7 605.7 1143 619.5C1238.3 633.3 1333.7 669.7 1428.8 682.3C1524 695 1619 684 1714.2 667C1809.3 650 1904.7 627 1952.3 615.5L2000 604L2000 1001L1952.3 1001C1904.7 1001 1809.3 1001 1714.2 1001C1619 1001 1524 1001 1428.8 1001C1333.7 1001 1238.3 1001 1143 1001C1047.7 1001 952.3 1001 857 1001C761.7 1001 666.3 1001 571.2 1001C476 1001 381 1001 285.8 1001C190.7 1001 95.3 1001 47.7 1001L0 1001Z" fill="#878c8f"></path><path d="M0 674L47.7 684.3C95.3 694.7 190.7 715.3 285.8 723.2C381 731 476 726 571.2 723.3C666.3 720.7 761.7 720.3 857 709.8C952.3 699.3 1047.7 678.7 1143 671.5C1238.3 664.3 1333.7 670.7 1428.8 680.8C1524 691 1619 705 1714.2 710.2C1809.3 715.3 1904.7 711.7 1952.3 709.8L2000 708L2000 1001L1952.3 1001C1904.7 1001 1809.3 1001 1714.2 1001C1619 1001 1524 1001 1428.8 1001C1333.7 1001 1238.3 1001 1143 1001C1047.7 1001 952.3 1001 857 1001C761.7 1001 666.3 1001 571.2 1001C476 1001 381 1001 285.8 1001C190.7 1001 95.3 1001 47.7 1001L0 1001Z" fill="#969b9f"></path><path d="M0 850L47.7 847.5C95.3 845 190.7 840 285.8 837.8C381 835.7 476 836.3 571.2 830.7C666.3 825 761.7 813 857 795.3C952.3 777.7 1047.7 754.3 1143 760.8C1238.3 767.3 1333.7 803.7 1428.8 812C1524 820.3 1619 800.7 1714.2 788C1809.3 775.3 1904.7 769.7 1952.3 766.8L2000 764L2000 1001L1952.3 1001C1904.7 1001 1809.3 1001 1714.2 1001C1619 1001 1524 1001 1428.8 1001C1333.7 1001 1238.3 1001 1143 1001C1047.7 1001 952.3 1001 857 1001C761.7 1001 666.3 1001 571.2 1001C476 1001 381 1001 285.8 1001C190.7 1001 95.3 1001 47.7 1001L0 1001Z" fill="#a5abaf"></path><path d="M0 825L47.7 838.2C95.3 851.3 190.7 877.7 285.8 875C381 872.3 476 840.7 571.2 837.8C666.3 835 761.7 861 857 870.8C952.3 880.7 1047.7 874.3 1143 875C1238.3 875.7 1333.7 883.3 1428.8 886.2C1524 889 1619 887 1714.2 876.8C1809.3 866.7 1904.7 848.3 1952.3 839.2L2000 830L2000 1001L1952.3 1001C1904.7 1001 1809.3 1001 1714.2 1001C1619 1001 1524 1001 1428.8 1001C1333.7 1001 1238.3 1001 1143 1001C1047.7 1001 952.3 1001 857 1001C761.7 1001 666.3 1001 571.2 1001C476 1001 381 1001 285.8 1001C190.7 1001 95.3 1001 47.7 1001L0 1001Z" fill="#b4babf"></path><path d="M0 911L47.7 913.5C95.3 916 190.7 921 285.8 923.5C381 926 476 926 571.2 924.2C666.3 922.3 761.7 918.7 857 918.5C952.3 918.3 1047.7 921.7 1143 923C1238.3 924.3 1333.7 923.7 1428.8 920.5C1524 917.3 1619 911.7 1714.2 909.3C1809.3 907 1904.7 908 1952.3 908.5L2000 909L2000 1001L1952.3 1001C1904.7 1001 1809.3 1001 1714.2 1001C1619 1001 1524 1001 1428.8 1001C1333.7 1001 1238.3 1001 1143 1001C1047.7 1001 952.3 1001 857 1001C761.7 1001 666.3 1001 571.2 1001C476 1001 381 1001 285.8 1001C190.7 1001 95.3 1001 47.7 1001L0 1001Z" fill="#c4cad0"></path></svg>